# xmcd
#
# Track frame offsets:
#	150
#	15291
#	27672
#	40074
#	56295
#	68202
#	83521
#	97653
#	111403
#	130388
#
# Disc length: 1904 seconds
#
# Revision: 1
# Processed by: cddbd v1.5.1PL0 Copyright (c) Steve Scherf et al.
# Submitted via: audiograbber 1.83.01
#
DISCID=73076e0a
DTITLE=Holly Dunn - The Blue Rose of Texas
DYEAR=1900
DGENRE=Country
TTITLE0=Track  Are you ever gonna love me
TTITLE1=You're still keeping me up at night
TTITLE2=Most of all, why
TTITLE3=Thunder and Lightning
TTITLE4=No ones takes the train anymore
TTITLE5=The Blue Rose of Texas
TTITLE6=Sometime Today
TTITLE7=There goes my heart again
TTITLE8=If I'd never loved you
TTITLE9=There's no heart so strong
EXTD=
EXTT0=
EXTT1=
EXTT2=
EXTT3=
EXTT4=
EXTT5=
EXTT6=
EXTT7=
EXTT8=
EXTT9=
PLAYORDER=
